HIERARCHY
ROOT Hip
{
	OFFSET	0.0000	0.0000	0.0000
	CHANNELS 6 Xposition Yposition Zposition Xrotation Yrotation Zrotation
	JOINT LowerSpine
	{
		OFFSET	0.0000	9.9786	-5.3998
		CHANNELS 3 Xrotation Yrotation Zrotation
		JOINT MiddleSpine
		{
			OFFSET	0.0000	9.1062	0.4757
			CHANNELS 3 Xrotation Yrotation Zrotation
			JOINT Chest
			{
				OFFSET	0.0000	11.2679	-2.5081
				CHANNELS 3 Xrotation Yrotation Zrotation
				JOINT Neck
				{
					OFFSET	0.0000	25.3918	-0.5281
					CHANNELS 3 Xrotation Yrotation Zrotation
					JOINT Head
					{
						OFFSET	0.0000	14.3390	3.9002
						CHANNELS 3 Xrotation Yrotation Zrotation
						End Site
						{
							OFFSET	0.0001	20.0354	0.5981
						}
					}
				}
				JOINT LClavicle
				{
					OFFSET	2.5635	24.5043	8.3953
					CHANNELS 3 Xrotation Yrotation Zrotation
					JOINT LShoulder
					{
						OFFSET	14.9764	3.5148	-5.6873
						CHANNELS 3 Xrotation Yrotation Zrotation
						JOINT LForearm
						{
							OFFSET	31.8128	-0.1130	-0.2757
							CHANNELS 3 Xrotation Yrotation Zrotation
							JOINT LHand
							{
								OFFSET	26.5386	0.0770	-0.1589
								CHANNELS 3 Xrotation Yrotation Zrotation
								JOINT LFinger1
								{
									OFFSET	10.2856	0.8995	2.8568
									CHANNELS 3 Xrotation Yrotation Zrotation
									JOINT LFinger11
									{
										OFFSET	3.8473	-0.9382	0.6779
										CHANNELS 3 Xrotation Yrotation Zrotation
										JOINT LFinger12
										{
											OFFSET	2.6265	-0.6407	0.4630
											CHANNELS 3 Xrotation Yrotation Zrotation
											End Site
											{
												OFFSET	1.8690	-0.5579	0.3032
											}
										}
									}
								}
								JOINT LFinger2
								{
									OFFSET	10.4391	1.0388	0.2487
									CHANNELS 3 Xrotation Yrotation Zrotation
									JOINT LFinger21
									{
										OFFSET	4.7570	0.0133	-0.0281
										CHANNELS 3 Xrotation Yrotation Zrotation
										JOINT LFinger22
										{
											OFFSET	2.6367	0.0080	-0.0160
											CHANNELS 3 Xrotation Yrotation Zrotation
											End Site
											{
												OFFSET	2.3683	-0.1672	0.0032
											}
										}
									}
								}
								JOINT LFinger3
								{
									OFFSET	9.8932	0.6931	-2.3405
									CHANNELS 3 Xrotation Yrotation Zrotation
									JOINT LFinger31
									{
										OFFSET	4.3165	-0.2186	-0.2702
										CHANNELS 3 Xrotation Yrotation Zrotation
										JOINT LFinger32
										{
											OFFSET	2.4597	-0.1237	-0.1546
											CHANNELS 3 Xrotation Yrotation Zrotation
											End Site
											{
												OFFSET	2.1748	-0.2674	-0.1028
											}
										}
									}
								}
								JOINT LFinger4
								{
									OFFSET	9.1805	-0.6977	-4.0422
									CHANNELS 3 Xrotation Yrotation Zrotation
									JOINT LFinger41
									{
										OFFSET	2.6551	-0.5537	-0.7329
										CHANNELS 3 Xrotation Yrotation Zrotation
										JOINT LFinger42
										{
											OFFSET	1.9469	-0.4055	-0.5378
											CHANNELS 3 Xrotation Yrotation Zrotation
											End Site
											{
												OFFSET	1.7281	-0.4748	-0.3965
											}
										}
									}
								}
								JOINT LFinger0
								{
									OFFSET	2.1276	-1.6104	1.6129
									CHANNELS 3 Xrotation Yrotation Zrotation
									JOINT LFinger01
									{
										OFFSET	3.9614	-1.3011	2.9868
										CHANNELS 3 Xrotation Yrotation Zrotation
										JOINT LFinger02
										{
											OFFSET	2.6086	-0.9334	1.8794
											CHANNELS 3 Xrotation Yrotation Zrotation
											End Site
											{
												OFFSET	1.9183	-0.6603	1.3135
											}
										}
									}
								}
							}
						}
					}
				}
				JOINT RClavicle
				{
					OFFSET	-2.5635	24.5043	8.3953
					CHANNELS 3 Xrotation Yrotation Zrotation
					JOINT RShoulder
					{
						OFFSET	-14.9790	3.5154	-5.6882
						CHANNELS 3 Xrotation Yrotation Zrotation
						JOINT RForearm
						{
							OFFSET	-31.8128	-0.1130	-0.2757
							CHANNELS 3 Xrotation Yrotation Zrotation
							JOINT RHand
							{
								OFFSET	-26.5386	0.0770	-0.1589
								CHANNELS 3 Xrotation Yrotation Zrotation
								JOINT RFinger1
								{
									OFFSET	-10.2856	0.8995	2.8568
									CHANNELS 3 Xrotation Yrotation Zrotation
									JOINT RFinger11
									{
										OFFSET	-3.8473	-0.9382	0.6779
										CHANNELS 3 Xrotation Yrotation Zrotation
										JOINT RFinger12
										{
											OFFSET	-2.6265	-0.6407	0.4630
											CHANNELS 3 Xrotation Yrotation Zrotation
											End Site
											{
												OFFSET	-1.8690	-0.5579	0.3032
											}
										}
									}
								}
								JOINT RFinger2
								{
									OFFSET	-10.4391	1.0388	0.2487
									CHANNELS 3 Xrotation Yrotation Zrotation
									JOINT RFinger21
									{
										OFFSET	-4.7570	0.0133	-0.0281
										CHANNELS 3 Xrotation Yrotation Zrotation
										JOINT RFinger22
										{
											OFFSET	-2.6367	0.0080	-0.0160
											CHANNELS 3 Xrotation Yrotation Zrotation
											End Site
											{
												OFFSET	-2.3683	-0.1672	0.0032
											}
										}
									}
								}
								JOINT RFinger3
								{
									OFFSET	-9.8932	0.6931	-2.3405
									CHANNELS 3 Xrotation Yrotation Zrotation
									JOINT RFinger31
									{
										OFFSET	-4.3165	-0.2185	-0.2702
										CHANNELS 3 Xrotation Yrotation Zrotation
										JOINT RFinger32
										{
											OFFSET	-2.4597	-0.1237	-0.1546
											CHANNELS 3 Xrotation Yrotation Zrotation
											End Site
											{
												OFFSET	-2.1748	-0.2674	-0.1028
											}
										}
									}
								}
								JOINT RFinger4
								{
									OFFSET	-9.1805	-0.6977	-4.0422
									CHANNELS 3 Xrotation Yrotation Zrotation
									JOINT RFinger41
									{
										OFFSET	-2.6551	-0.5537	-0.7329
										CHANNELS 3 Xrotation Yrotation Zrotation
										JOINT RFinger42
										{
											OFFSET	-1.9469	-0.4055	-0.5378
											CHANNELS 3 Xrotation Yrotation Zrotation
											End Site
											{
												OFFSET	-1.7281	-0.4748	-0.3965
											}
										}
									}
								}
								JOINT RFinger0
								{
									OFFSET	-2.1276	-1.6104	1.6130
									CHANNELS 3 Xrotation Yrotation Zrotation
									JOINT RFinger01
									{
										OFFSET	-3.9614	-1.3011	2.9868
										CHANNELS 3 Xrotation Yrotation Zrotation
										JOINT RFinger02
										{
											OFFSET	-2.6086	-0.9334	1.8794
											CHANNELS 3 Xrotation Yrotation Zrotation
											End Site
											{
												OFFSET	-1.9183	-0.6603	1.3135
											}
										}
									}
								}
							}
						}
					}
				}
			}
		}
	}
	JOINT RThigh
	{
		OFFSET	-10.6746	4.5106	-0.8799
		CHANNELS 3 Xrotation Yrotation Zrotation
		JOINT RShin
		{
			OFFSET	-0.8542	-46.4297	0.0000
			CHANNELS 3 Xrotation Yrotation Zrotation
			JOINT RFoot
			{
				OFFSET	0.0000	-45.5911	0.0000
				CHANNELS 3 Xrotation Yrotation Zrotation
				JOINT RToe
				{
					OFFSET	0.0000	-5.0109	10.4784
					CHANNELS 3 Xrotation Yrotation Zrotation
					End Site
					{
						OFFSET	0.0000	0.0000	7.0295
					}
				}
			}
		}
	}
	JOINT LThigh
	{
		OFFSET	10.6745	4.5109	-0.8799
		CHANNELS 3 Xrotation Yrotation Zrotation
		JOINT LShin
		{
			OFFSET	0.8542	-46.4301	0.0000
			CHANNELS 3 Xrotation Yrotation Zrotation
			JOINT LFoot
			{
				OFFSET	0.0000	-45.5911	0.0000
				CHANNELS 3 Xrotation Yrotation Zrotation
				JOINT LToe
				{
					OFFSET	0.0000	-5.0109	10.4784
					CHANNELS 3 Xrotation Yrotation Zrotation
					End Site
					{
						OFFSET	0.0000	0.0000	7.0295
					}
				}
			}
		}
	}
}
MOTION
Frames:	6
Frame Time: 0.0333333000
	0.1527	96.8836	2.8159	-1.320591	-0.000003	-2.478958	0.000000	0.000000	0.000000	0.750332	-0.244474	-0.071554	2.493627	-0.814548	-0.205178	0.000000	0.000000	0.000000	0.000000	0.000000	0.000000	0.000000	0.000000	-15.153350	11.115630	-19.930990	-58.478030	-4.516840	-24.815150	0.011426	0.000000	0.000000	0.000000	0.000000	0.000000	0.000000	0.000000	0.000000	0.000000	0.000000	0.000000	0.000000	0.000000	0.000000	0.000000	0.000000	0.000000	0.000000	0.000000	0.000000	0.000000	0.000000	0.000000	0.000000	0.000000	0.000000	0.000000	0.000000	0.000000	0.000000	0.000000	0.000000	0.000000	0.000000	0.000000	0.000000	0.000000	0.000000	0.000000	0.000000	0.000000	0.000000	0.000000	0.000000	0.000000	0.000000	0.000000	0.000000	0.000000	0.000000	15.093680	13.341000	16.504360	60.057950	-4.913881	37.386610	0.015405	0.000000	0.000000	0.000000	0.000000	0.000000	0.000000	0.000000	0.000000	0.000000	0.000000	0.000000	0.000000	0.000000	0.000000	0.000000	0.000000	0.000000	0.000000	0.000000	0.000000	0.000000	0.000000	0.000000	0.000000	0.000000	0.000000	0.000000	0.000000	0.000000	0.000000	0.000000	0.000000	0.000000	0.000000	0.000000	0.000000	0.000000	0.000000	0.000000	0.000000	0.000000	0.000000	0.000000	0.000000	0.000000	0.000000	0.000000	0.000000	-3.796192	-0.051924	2.183143	14.273510	-0.311715	0.048892	-2.660502	-2.558246	-1.283851	0.000000	0.000000	0.000000	1.473285	0.132431	7.860918	0.189890	-0.008504	-3.697877	-2.215921	-6.417786	-3.236641	0.000000	0.000000	0.000000
	0.3846	97.0619	3.3667	-2.810339	0.756232	-2.755179	0.000000	0.000000	0.000000	1.255202	-0.468028	0.145418	4.186626	-1.545126	0.533687	0.000000	0.000000	0.000000	0.000000	0.000000	0.000000	0.000000	0.000000	-14.972310	12.466820	-18.552480	-58.422170	-4.046568	-30.202130	-0.022823	0.000000	0.000000	0.000000	0.000000	0.000000	0.000000	0.000000	0.000000	0.000000	0.000000	0.000000	0.000000	0.000000	0.000000	0.000000	0.000000	0.000000	0.000000	0.000000	0.000000	0.000000	0.000000	0.000000	0.000000	0.000000	0.000000	0.000000	0.000000	0.000000	0.000000	0.000000	0.000000	0.000000	0.000000	0.000000	0.000000	0.000000	0.000000	0.000000	0.000000	0.000000	0.000000	0.000000	0.000000	0.000000	0.000000	0.000000	0.000000	0.000000	0.000000	15.100820	12.731120	16.730810	59.801820	-5.259117	36.940800	0.017770	0.000000	0.000000	0.000000	0.000000	0.000000	0.000000	0.000000	0.000000	0.000000	0.000000	0.000000	0.000000	0.000000	0.000000	0.000000	0.000000	0.000000	0.000000	0.000000	0.000000	0.000000	0.000000	0.000000	0.000000	0.000000	0.000000	0.000000	0.000000	0.000000	0.000000	0.000000	0.000000	0.000000	0.000000	0.000000	0.000000	0.000000	0.000000	0.000000	0.000000	0.000000	0.000000	0.000000	0.000000	0.000000	0.000000	0.000000	0.000000	-1.454644	-1.378522	1.541596	13.981920	-1.567226	0.362400	-4.528271	-0.984548	-0.509805	0.000000	0.000000	0.000000	3.311736	0.289402	7.450214	2.077450	-0.103176	-2.645699	-1.281804	-3.293826	-1.626376	0.000000	0.000000	0.000000
	0.4995	97.2829	3.8079	-3.970345	1.692175	-2.999923	0.000000	0.000000	0.000000	1.657282	-0.698109	0.320842	5.540885	-2.288109	1.149247	0.000000	0.000000	0.000000	0.000000	0.000000	0.000000	0.000000	0.000000	-14.889400	13.089060	-18.026840	-58.379230	-3.751031	-32.995650	-0.018911	0.000000	0.000000	0.000000	0.000000	0.000000	0.000000	0.000000	0.000000	0.000000	0.000000	0.000000	0.000000	0.000000	0.000000	0.000000	0.000000	0.000000	0.000000	0.000000	0.000000	0.000000	0.000000	0.000000	0.000000	0.000000	0.000000	0.000000	0.000000	0.000000	0.000000	0.000000	0.000000	0.000000	0.000000	0.000000	0.000000	0.000000	0.000000	0.000000	0.000000	0.000000	0.000000	0.000000	0.000000	0.000000	0.000000	0.000000	0.000000	0.000000	0.000000	15.155440	11.919380	16.849440	59.772950	-5.920481	36.194930	0.016713	0.000000	0.000000	0.000000	0.000000	0.000000	0.000000	0.000000	0.000000	0.000000	0.000000	0.000000	0.000000	0.000000	0.000000	0.000000	0.000000	0.000000	0.000000	0.000000	0.000000	0.000000	0.000000	0.000000	0.000000	0.000000	0.000000	0.000000	0.000000	0.000000	0.000000	0.000000	0.000000	0.000000	0.000000	0.000000	0.000000	0.000000	0.000000	0.000000	0.000000	0.000000	0.000000	0.000000	0.000000	0.000000	0.000000	0.000000	0.000000	0.378821	-2.359685	1.299968	13.556410	-2.366086	0.564796	-4.775781	-0.038053	-0.021985	0.000000	0.000000	0.000000	4.455777	0.420506	7.272528	3.821141	-0.331367	-1.991350	-1.018986	-1.342837	-0.655533	0.000000	0.000000	0.000000
	0.5685	97.5041	3.9985	-4.657446	2.613286	-3.170188	0.000000	0.000000	0.000000	1.911445	-0.892826	0.429979	6.400808	-2.915614	1.548432	0.000000	0.000000	0.000000	0.000000	0.000000	0.000000	0.000000	0.000000	-14.902800	12.973320	-18.286130	-58.338940	-3.707090	-33.186100	-0.015710	0.000000	0.000000	0.000000	0.000000	0.000000	0.000000	0.000000	0.000000	0.000000	0.000000	0.000000	0.000000	0.000000	0.000000	0.000000	0.000000	0.000000	0.000000	0.000000	0.000000	0.000000	0.000000	0.000000	0.000000	0.000000	0.000000	0.000000	0.000000	0.000000	0.000000	0.000000	0.000000	0.000000	0.000000	0.000000	0.000000	0.000000	0.000000	0.000000	0.000000	0.000000	0.000000	0.000000	0.000000	0.000000	0.000000	0.000000	0.000000	0.000000	0.000000	15.238760	11.087770	16.811500	59.958540	-6.750012	35.410920	0.006023	0.000000	0.000000	0.000000	0.000000	0.000000	0.000000	0.000000	0.000000	0.000000	0.000000	0.000000	0.000000	0.000000	0.000000	0.000000	0.000000	0.000000	0.000000	0.000000	0.000000	0.000000	0.000000	0.000000	0.000000	0.000000	0.000000	0.000000	0.000000	0.000000	0.000000	0.000000	0.000000	0.000000	0.000000	0.000000	0.000000	0.000000	0.000000	0.000000	0.000000	0.000000	0.000000	0.000000	0.000000	0.000000	0.000000	0.000000	0.000000	1.480520	-2.888753	1.378911	13.094210	-2.663176	0.646764	-3.534898	0.111196	0.052797	0.000000	0.000000	0.000000	4.794096	0.519411	7.286398	5.231380	-0.645970	-1.716847	-1.259476	-0.706238	-0.346092	0.000000	0.000000	0.000000
	0.6256	97.6403	4.0230	-4.960220	3.187793	-3.255801	0.000000	0.000000	0.000000	2.032718	-1.003911	0.480471	6.816692	-3.279048	1.742133	0.000000	0.000000	0.000000	0.000000	0.000000	0.000000	0.000000	0.000000	-14.937740	12.702500	-18.616590	-58.328240	-3.773726	-32.698680	-0.013169	0.000000	0.000000	0.000000	0.000000	0.000000	0.000000	0.000000	0.000000	0.000000	0.000000	0.000000	0.000000	0.000000	0.000000	0.000000	0.000000	0.000000	0.000000	0.000000	0.000000	0.000000	0.000000	0.000000	0.000000	0.000000	0.000000	0.000000	0.000000	0.000000	0.000000	0.000000	0.000000	0.000000	0.000000	0.000000	0.000000	0.000000	0.000000	0.000000	0.000000	0.000000	0.000000	0.000000	0.000000	0.000000	0.000000	0.000000	0.000000	0.000000	0.000000	15.298380	10.590120	16.733650	60.124200	-7.292541	34.971970	-0.003967	0.000000	0.000000	0.000000	0.000000	0.000000	0.000000	0.000000	0.000000	0.000000	0.000000	0.000000	0.000000	0.000000	0.000000	0.000000	0.000000	0.000000	0.000000	0.000000	0.000000	0.000000	0.000000	0.000000	0.000000	0.000000	0.000000	0.000000	0.000000	0.000000	0.000000	0.000000	0.000000	0.000000	0.000000	0.000000	0.000000	0.000000	0.000000	0.000000	0.000000	0.000000	0.000000	0.000000	0.000000	0.000000	0.000000	0.000000	0.000000	1.977586	-3.108366	1.495546	12.801030	-2.734665	0.668308	-2.401309	-0.032412	-0.016249	0.000000	0.000000	0.000000	4.770143	0.573875	7.328275	6.105001	-0.823240	-1.608680	-1.470265	-0.657396	-0.324807	0.000000	0.000000	0.000000
	0.6518	97.6865	4.0177	-5.049162	3.420905	-3.288097	0.000000	0.000000	0.000000	2.068444	-1.041045	0.495904	6.955026	-3.418885	1.811332	0.000000	0.000000	0.000000	0.000000	0.000000	0.000000	0.000000	0.000000	-14.952050	12.583410	-18.733820	-58.334630	-3.822190	-32.515930	-0.011932	0.000000	0.000000	0.000000	0.000000	0.000000	0.000000	0.000000	0.000000	0.000000	0.000000	0.000000	0.000000	0.000000	0.000000	0.000000	0.000000	0.000000	0.000000	0.000000	0.000000	0.000000	0.000000	0.000000	0.000000	0.000000	0.000000	0.000000	0.000000	0.000000	0.000000	0.000000	0.000000	0.000000	0.000000	0.000000	0.000000	0.000000	0.000000	0.000000	0.000000	0.000000	0.000000	0.000000	0.000000	0.000000	0.000000	0.000000	0.000000	0.000000	0.000000	15.317610	10.444170	16.692790	60.181620	-7.464518	34.843820	-0.007401	0.000000	0.000000	0.000000	0.000000	0.000000	0.000000	0.000000	0.000000	0.000000	0.000000	0.000000	0.000000	0.000000	0.000000	0.000000	0.000000	0.000000	0.000000	0.000000	0.000000	0.000000	0.000000	0.000000	0.000000	0.000000	0.000000	0.000000	0.000000	0.000000	0.000000	0.000000	0.000000	0.000000	0.000000	0.000000	0.000000	0.000000	0.000000	0.000000	0.000000	0.000000	0.000000	0.000000	0.000000	0.000000	0.000000	0.000000	0.000000	2.139250	-3.175213	1.542434	12.691640	-2.761990	0.672850	-2.019948	-0.099462	-0.049740	0.000000	0.000000	0.000000	4.672434	0.592320	7.335008	6.572539	-0.815756	-1.540489	-1.617080	-0.706742	-0.350311	0.000000	0.000000	0.000000
